# Blender v2.90.1 OBJ File: 'CUbe.blend'
# www.blender.org
mtllib cube_with_texture.mtl
o Plane1_Плоскость
v -1.000000 1.000000 1.000000
v 1.000000 1.000000 1.000000
v -1.000000 1.000000 -1.000000
v 1.000000 1.000000 -1.000000
vt 0.000000 0.000000
vt 1.000000 0.000000
vt 1.000000 1.000000
vt 0.000000 1.000000
vn 0.0000 1.0000 0.0000
usemtl Материал
s off
f 1/1/1 2/2/1 4/3/1 3/4/1
o Plane2_Плоскость.001
v -1.000000 -1.000000 1.000000
v -1.000000 1.000000 1.000000
v -1.000000 -1.000000 -1.000000
v -1.000000 1.000000 -1.000000
vt 0.000000 0.000000
vt 1.000000 0.000000
vt 1.000000 1.000000
vt 0.000000 1.000000
vn -1.0000 -0.0000 0.0000
usemtl Материал.003
s off
f 5/5/2 6/6/2 8/7/2 7/8/2
o Plane3_Плоскость.002
v -1.000000 1.000000 -1.000000
v 1.000000 1.000000 -1.000000
v -1.000000 -1.000000 -1.000000
v 1.000000 -1.000000 -1.000000
vt 0.000000 0.000000
vt 1.000000 0.000000
vt 1.000000 1.000000
vt 0.000000 1.000000
vn 0.0000 -0.0000 -1.0000
usemtl Материал.004
s off
f 9/9/3 10/10/3 12/11/3 11/12/3
o Plane4_Плоскость.003
v 1.000000 1.000000 1.000000
v 1.000000 -1.000000 1.000000
v 1.000000 1.000000 -1.000000
v 1.000000 -1.000000 -1.000000
vt 0.000000 0.000000
vt 1.000000 0.000000
vt 1.000000 1.000000
vt 0.000000 1.000000
vn 1.0000 -0.0000 0.0000
usemtl Материал.001
s off
f 13/13/4 14/14/4 16/15/4 15/16/4
o Plane5_Плоскость.004
v -1.000000 -1.000000 1.000000
v 1.000000 -1.000000 1.000000
v -1.000000 1.000000 1.000000
v 1.000000 1.000000 1.000000
vt 0.000000 0.000000
vt 1.000000 0.000000
vt 1.000000 1.000000
vt 0.000000 1.000000
vn 0.0000 -0.0000 1.0000
usemtl Материал.002
s off
f 17/17/5 18/18/5 20/19/5 19/20/5
o Plane6_Плоскость.005
v -1.000000 -1.000000 -1.000000
v 1.000000 -1.000000 -1.000000
v -1.000000 -1.000000 1.000000
v 1.000000 -1.000000 1.000000
vt 0.000000 0.000000
vt 1.000000 0.000000
vt 1.000000 1.000000
vt 0.000000 1.000000
vn 0.0000 -1.0000 -0.0000
usemtl Материал.005
s off
f 21/21/6 22/22/6 24/23/6 23/24/6
o Cube_Куб
v -0.100000 -0.100000 0.100000
v -0.100000 0.100000 0.100000
v -0.100000 -0.100000 -0.100000
v -0.100000 0.100000 -0.100000
v 0.100000 -0.100000 0.100000
v 0.100000 0.100000 0.100000
v 0.100000 -0.100000 -0.100000
v 0.100000 0.100000 -0.100000
vt 0.375000 0.000000
vt 0.625000 0.000000
vt 0.625000 0.250000
vt 0.375000 0.250000
vt 0.625000 0.500000
vt 0.375000 0.500000
vt 0.625000 0.750000
vt 0.375000 0.750000
vt 0.625000 1.000000
vt 0.375000 1.000000
vt 0.125000 0.500000
vt 0.125000 0.750000
vt 0.875000 0.500000
vt 0.875000 0.750000
vn -1.0000 0.0000 0.0000
vn 0.0000 0.0000 -1.0000
vn 1.0000 0.0000 0.0000
vn 0.0000 0.0000 1.0000
vn 0.0000 -1.0000 0.0000
vn 0.0000 1.0000 0.0000
usemtl None
s off
f 25/25/7 26/26/7 28/27/7 27/28/7
f 27/28/8 28/27/8 32/29/8 31/30/8
f 31/30/9 32/29/9 30/31/9 29/32/9
f 29/32/10 30/31/10 26/33/10 25/34/10
f 27/35/11 31/30/11 29/32/11 25/36/11
f 32/29/12 28/37/12 26/38/12 30/31/12
